# xmcd
#
# Track frame offsets:
#	150
#	34530
#	49570
#	62980
#	89230
#	104245
#	117925
#	134460
#	162520
#	174925
#	188365
#	209690
#	223590
#	234525
#	248260
#
# Disc length: 3488 seconds
#
# Revision: 1
# Processed by: cddbd v1.4PL0 Copyright (c) Steve Scherf et al.
# Submitted via: audiograbber 1.82.01
#
DISCID=d70d9e0f
DTITLE=Wadih El Safi  - Best Of
DYEAR=1900
DGENRE=Ethnic
TTITLE0=Jayin Ya Arz El Jabal Jayin
TTITLE1=Mijana W Ataba
TTITLE2=Ya Weyl Hali
TTITLE3=An Najmat
TTITLE4=Ya Oum El Dafayer
TTITLE5=Tallaani Darja Darja
TTITLE6=Ouyounik Akhazouni
TTITLE7=Ya Sakhrat El Mina
TTITLE8=Ouyounha El Kahla
TTITLE9=Katalouna Ouyouna El Soud
TTITLE10=Jina Addar
TTITLE11=Endi Jarah
TTITLE12=In Jadd El Jadd
TTITLE13=Tallet Tetmakhtar
TTITLE14=Kinto Hanayen
EXTD=
EXTT0=
EXTT1=
EXTT2=
EXTT3=
EXTT4=
EXTT5=
EXTT6=
EXTT7=
EXTT8=
EXTT9=
EXTT10=
EXTT11=
EXTT12=
EXTT13=
EXTT14=
PLAYORDER=
